<?xml version="1.0" standalone="no"?>
<!DOCTYPE svg PUBLIC "-//W3C//DTD SVG 20010904//EN"
 "http://www.w3.org/TR/2001/REC-SVG-20010904/DTD/svg10.dtd">
<svg version="1.0" xmlns="http://www.w3.org/2000/svg"
 width="512.000000pt" height="512.000000pt" viewBox="0 0 512.000000 512.000000"
 preserveAspectRatio="xMidYMid meet">

<g transform="translate(0.000000,512.000000) scale(0.100000,-0.100000)"
fill="#000000" stroke="none">
<path d="M1692 4522 c-131 -79 -330 -249 -558 -477 -235 -234 -395 -422 -560
-658 -271 -385 -460 -818 -511 -1165 l-17 -117 28 -115 c78 -324 223 -654 389
-887 38 -53 62 -77 90 -88 146 -59 322 -78 477 -51 533 93 1152 590 1946 1561
125 153 434 568 672 902 289 406 335 464 354 445 17 -17 -20 -108 -169 -405
-145 -291 -242 -470 -363 -672 -154 -257 -436 -802 -539 -1043 -181 -423 -233
-691 -151 -774 25 -25 36 -28 92 -28 82 0 148 31 216 100 90 91 253 345 472
735 62 110 140 247 175 305 34 58 126 218 205 355 379 661 660 1095 745 1151
31 20 55 12 55 -18 0 -55 -239 -687 -394 -1041 -259 -594 -404 -981 -470
-1257 -27 -109 -49 -277 -40 -291 3 -5 52 -9 109 -9 l104 0 5 43 c41 339 66
448 176 767 150 438 267 744 408 1075 167 394 262 648 262 704 0 21 -79 203
-95 219 -10 11 -118 -61 -168 -111 -109 -110 -357 -504 -964 -1532 -366 -619
-531 -881 -596 -944 -34 -32 -35 -33 -46 -12 -17 31 19 191 89 401 140 419
319 816 859 1901 266 535 321 652 321 687 0 57 -23 69 -89 47 -85 -28 -228
-193 -513 -590 -778 -1086 -884 -1218 -1313 -1650 -211 -213 -430 -407 -583
-515 -204 -145 -429 -262 -587 -306 -81 -22 -262 -30 -334 -14 -145 31 -294
142 -395 293 -74 112 -170 313 -201 422 -93 321 -63 665 86 1013 206 481 508
859 1161 1455 119 108 220 202 224 208 14 23 -5 17 -64 -19z"/>
</g>
</svg>
